<svg width="40" height="40" viewBox="0 0 40 40" fill="none" xmlns="http://www.w3.org/2000/svg">
<rect width="40" height="40" rx="10" fill="#F34868"/>
<g clip-path="url(#clip0)">
<path d="M31.4583 27.2917H28.6844C28.2333 25.7906 26.8541 24.6875 25.2083 24.6875C23.5625 24.6875 22.1844 25.7906 21.7323 27.2917H8.54165C7.96665 27.2917 7.5 27.7583 7.5 28.3333C7.5 28.9083 7.96665 29.375 8.54165 29.375H21.7323C22.1833 30.876 23.5625 31.9792 25.2083 31.9792C26.8541 31.9792 28.2323 30.876 28.6843 29.375H31.4583C32.0343 29.375 32.4999 28.9083 32.4999 28.3333C32.4999 27.7583 32.0344 27.2917 31.4583 27.2917ZM25.2083 29.8958C24.3469 29.8958 23.6458 29.1948 23.6458 28.3333C23.6458 27.4719 24.3469 26.7708 25.2083 26.7708C26.0698 26.7708 26.7708 27.4719 26.7708 28.3333C26.7708 29.1948 26.0698 29.8958 25.2083 29.8958Z" fill="#F2F2F2"/>
<path d="M31.4583 10.6251H28.6844C28.2323 9.12412 26.8542 8.021 25.2083 8.021C23.5625 8.021 22.1844 9.12412 21.7323 10.6251H8.54165C7.96665 10.6251 7.5 11.0918 7.5 11.6668C7.5 12.2418 7.96665 12.7084 8.54165 12.7084H21.7323C22.1844 14.2095 23.5625 15.3126 25.2083 15.3126C26.8542 15.3126 28.2323 14.2095 28.6844 12.7085H31.4583C32.0344 12.7085 32.5 12.2418 32.5 11.6668C32.5 11.0918 32.0344 10.6251 31.4583 10.6251ZM25.2083 13.2293C24.3469 13.2293 23.6458 12.5283 23.6458 11.6668C23.6458 10.8053 24.3469 10.1043 25.2083 10.1043C26.0698 10.1043 26.7708 10.8053 26.7708 11.6668C26.7708 12.5283 26.0698 13.2293 25.2083 13.2293Z" fill="#F2F2F2"/>
<path d="M31.4583 18.9584H18.2677C17.8156 17.4574 16.4375 16.3542 14.7917 16.3542C13.1459 16.3542 11.7677 17.4574 11.3157 18.9584H8.54165C7.96665 18.9584 7.5 19.4251 7.5 20.0001C7.5 20.5751 7.96665 21.0417 8.54165 21.0417H11.3156C11.7677 22.5428 13.1458 23.6459 14.7916 23.6459C16.4374 23.6459 17.8156 22.5428 18.2677 21.0417H31.4583C32.0343 21.0417 32.4999 20.5751 32.4999 20.0001C32.5 19.4251 32.0344 18.9584 31.4583 18.9584ZM14.7916 21.5626C13.9302 21.5626 13.2291 20.8615 13.2291 20.0001C13.2291 19.1386 13.9302 18.4376 14.7916 18.4376C15.6531 18.4376 16.3541 19.1386 16.3541 20.0001C16.3541 20.8615 15.6531 21.5626 14.7916 21.5626Z" fill="#F2F2F2"/>
</g>
<defs>
<clipPath id="clip0">
<rect width="25" height="25" fill="white" transform="translate(7.5 7.5)"/>
</clipPath>
</defs>
</svg>
