<svg width="135" height="135" viewBox="0 0 135 135" fill="none" xmlns="http://www.w3.org/2000/svg">
<circle cx="67.5" cy="67.5" r="61.3318" stroke="#974063" stroke-width="12.3364"/>
<path d="M30.088 76V60.04H26.104V58.48H31.888V76H30.088ZM43.8164 76.408C42.1684 76.408 40.8324 76.032 39.8084 75.28C38.7844 74.528 38.0324 73.504 37.5524 72.208C37.0884 70.912 36.8564 69.448 36.8564 67.816V66.688C36.8564 64.976 37.1044 63.472 37.6004 62.176C38.1124 60.88 38.8804 59.864 39.9044 59.128C40.9284 58.392 42.2324 58.024 43.8164 58.024C45.3844 58.024 46.6804 58.392 47.7044 59.128C48.7284 59.864 49.4884 60.88 49.9844 62.176C50.4964 63.472 50.7524 64.976 50.7524 66.688V67.816C50.7524 69.448 50.5124 70.912 50.0324 72.208C49.5524 73.504 48.8004 74.528 47.7764 75.28C46.7684 76.032 45.4484 76.408 43.8164 76.408ZM43.8164 74.776C45.5444 74.776 46.8244 74.168 47.6564 72.952C48.5044 71.736 48.9284 69.84 48.9284 67.264C48.9284 64.592 48.4964 62.656 47.6324 61.456C46.7844 60.256 45.5124 59.656 43.8164 59.656C42.1044 59.656 40.8164 60.256 39.9524 61.456C39.1044 62.64 38.6804 64.56 38.6804 67.216C38.6804 69.808 39.0964 71.72 39.9284 72.952C40.7764 74.168 42.0724 74.776 43.8164 74.776ZM61.4648 76.408C59.8168 76.408 58.4808 76.032 57.4568 75.28C56.4328 74.528 55.6808 73.504 55.2008 72.208C54.7368 70.912 54.5048 69.448 54.5048 67.816V66.688C54.5048 64.976 54.7528 63.472 55.2488 62.176C55.7608 60.88 56.5288 59.864 57.5528 59.128C58.5768 58.392 59.8808 58.024 61.4648 58.024C63.0328 58.024 64.3288 58.392 65.3528 59.128C66.3768 59.864 67.1368 60.88 67.6328 62.176C68.1448 63.472 68.4008 64.976 68.4008 66.688V67.816C68.4008 69.448 68.1608 70.912 67.6808 72.208C67.2008 73.504 66.4488 74.528 65.4248 75.28C64.4168 76.032 63.0968 76.408 61.4648 76.408ZM61.4648 74.776C63.1928 74.776 64.4728 74.168 65.3048 72.952C66.1528 71.736 66.5768 69.84 66.5768 67.264C66.5768 64.592 66.1448 62.656 65.2808 61.456C64.4328 60.256 63.1608 59.656 61.4648 59.656C59.7528 59.656 58.4648 60.256 57.6008 61.456C56.7528 62.64 56.3288 64.56 56.3288 67.216C56.3288 69.808 56.7448 71.72 57.5768 72.952C58.4248 74.168 59.7208 74.776 61.4648 74.776ZM72.6093 80.8V63.304H74.0493V66.496C74.4493 65.328 75.1133 64.432 76.0413 63.808C76.9693 63.184 78.0413 62.872 79.2573 62.872C80.5053 62.872 81.5853 63.184 82.4973 63.808C83.4253 64.416 84.1373 65.224 84.6333 66.232C85.1293 67.224 85.3773 68.304 85.3773 69.472V69.808C85.3773 70.96 85.1213 72.04 84.6093 73.048C84.1133 74.056 83.4013 74.872 82.4733 75.496C81.5453 76.104 80.4573 76.408 79.2093 76.408C78.2013 76.408 77.2733 76.184 76.4253 75.736C75.5773 75.272 74.9053 74.6 74.4093 73.72V80.8H72.6093ZM78.9693 74.824C79.9133 74.824 80.7293 74.6 81.4173 74.152C82.1213 73.688 82.6573 73.064 83.0253 72.28C83.3933 71.496 83.5773 70.616 83.5773 69.64C83.5773 68.664 83.3853 67.784 83.0013 67C82.6333 66.216 82.1053 65.6 81.4173 65.152C80.7293 64.688 79.9133 64.456 78.9693 64.456C78.0893 64.456 77.2973 64.656 76.5933 65.056C75.9053 65.44 75.3533 65.984 74.9373 66.688C74.5373 67.376 74.3373 68.184 74.3373 69.112V70.288C74.3373 71.184 74.5373 71.976 74.9373 72.664C75.3533 73.336 75.9053 73.864 76.5933 74.248C77.2973 74.632 78.0893 74.824 78.9693 74.824ZM93.6235 76.144C92.7595 76.144 91.9995 76.016 91.3435 75.76C90.7035 75.504 90.2075 75.072 89.8555 74.464C89.5035 73.856 89.3275 73.024 89.3275 71.968V64.672H87.0475V63.304H89.3275V59.296H91.0555V63.304H95.6395V64.672H91.0555V72.232C91.0555 72.952 91.2555 73.512 91.6555 73.912C92.0555 74.312 92.6235 74.512 93.3595 74.512H95.6395V76.144H93.6235ZM103.031 76.36C101.399 76.36 100.143 76.008 99.2633 75.304C98.3833 74.584 97.9353 73.624 97.9193 72.424H99.5993C99.6153 73.048 99.8793 73.608 100.391 74.104C100.919 74.584 101.799 74.824 103.031 74.824C104.167 74.824 105.015 74.592 105.575 74.128C106.151 73.648 106.439 73.072 106.439 72.4C106.439 71.2 105.519 70.496 103.679 70.288L102.239 70.144C101.071 70.016 100.135 69.664 99.4313 69.088C98.7273 68.512 98.3753 67.704 98.3753 66.664C98.3753 65.544 98.7993 64.64 99.6473 63.952C100.495 63.264 101.623 62.92 103.031 62.92C104.391 62.92 105.495 63.24 106.343 63.88C107.207 64.52 107.647 65.432 107.663 66.616H105.983C105.967 66.008 105.711 65.496 105.215 65.08C104.719 64.664 103.991 64.456 103.031 64.456C102.039 64.456 101.295 64.68 100.799 65.128C100.319 65.56 100.079 66.08 100.079 66.688C100.079 67.216 100.263 67.656 100.631 68.008C100.999 68.344 101.575 68.552 102.359 68.632L103.799 68.776C105.079 68.92 106.119 69.288 106.919 69.88C107.735 70.472 108.143 71.32 108.143 72.424C108.143 73.176 107.927 73.856 107.495 74.464C107.079 75.056 106.487 75.52 105.719 75.856C104.951 76.192 104.055 76.36 103.031 76.36Z" fill="#974063"/>
<path d="M30.088 76H29.088V77H30.088V76ZM30.088 60.04H31.088V59.04H30.088V60.04ZM26.104 60.04H25.104V61.04H26.104V60.04ZM26.104 58.48V57.48H25.104V58.48H26.104ZM31.888 58.48H32.888V57.48H31.888V58.48ZM31.888 76V77H32.888V76H31.888ZM31.088 76V60.04H29.088V76H31.088ZM30.088 59.04H26.104V61.04H30.088V59.04ZM27.104 60.04V58.48H25.104V60.04H27.104ZM26.104 59.48H31.888V57.48H26.104V59.48ZM30.888 58.48V76H32.888V58.48H30.888ZM31.888 75H30.088V77H31.888V75ZM39.8084 75.28L39.2165 76.086L39.8084 75.28ZM37.5524 72.208L36.6108 72.5451L36.6146 72.5553L37.5524 72.208ZM37.6004 62.176L36.6703 61.8085L36.6664 61.8186L37.6004 62.176ZM49.9844 62.176L49.0504 62.5335L49.0543 62.5434L49.9844 62.176ZM50.0324 72.208L50.9701 72.5553V72.5553L50.0324 72.208ZM47.7764 75.28L47.1845 74.474L47.1784 74.4785L47.7764 75.28ZM47.6564 72.952L46.8361 72.38L46.8311 72.3873L47.6564 72.952ZM47.6324 61.456L46.8157 62.0331L46.8208 62.0403L47.6324 61.456ZM39.9524 61.456L39.1408 60.8717L39.1394 60.8737L39.9524 61.456ZM39.9284 72.952L39.0997 73.5117L39.1038 73.5179L39.1081 73.524L39.9284 72.952ZM43.8164 75.408C42.318 75.408 41.2079 75.0671 40.4003 74.474L39.2165 76.086C40.4569 76.9969 42.0187 77.408 43.8164 77.408V75.408ZM40.4003 74.474C39.5478 73.8479 38.9084 72.9901 38.4901 71.8607L36.6146 72.5553C37.1563 74.0179 38.021 75.208 39.2165 76.086L40.4003 74.474ZM38.4939 71.8709C38.075 70.7011 37.8564 69.3539 37.8564 67.816H35.8564C35.8564 69.5421 36.1017 71.1229 36.6109 72.5451L38.4939 71.8709ZM37.8564 67.816V66.688H35.8564V67.816H37.8564ZM37.8564 66.688C37.8564 65.0706 38.0909 63.6921 38.5343 62.5334L36.6664 61.8186C36.1179 63.2519 35.8564 64.8814 35.8564 66.688H37.8564ZM38.5304 62.5434C38.9796 61.4064 39.6358 60.5525 40.488 59.94L39.3207 58.316C38.1249 59.1755 37.2451 60.3536 36.6703 61.8086L38.5304 62.5434ZM40.488 59.94C41.3027 59.3544 42.3877 59.024 43.8164 59.024V57.024C42.077 57.024 40.554 57.4296 39.3207 58.316L40.488 59.94ZM43.8164 59.024C45.2265 59.024 46.3044 59.3533 47.1207 59.94L48.288 58.316C47.0564 57.4307 45.5422 57.024 43.8164 57.024V59.024ZM47.1207 59.94C47.9703 60.5506 48.617 61.4009 49.0504 62.5334L50.9183 61.8186C50.3598 60.3591 49.4865 59.1774 48.288 58.316L47.1207 59.94ZM49.0543 62.5434C49.5109 63.6991 49.7524 65.0739 49.7524 66.688H51.7524C51.7524 64.8781 51.4819 63.2449 50.9144 61.8086L49.0543 62.5434ZM49.7524 66.688V67.816H51.7524V66.688H49.7524ZM49.7524 67.816C49.7524 69.3504 49.5268 70.6939 49.0946 71.8607L50.9701 72.5553C51.498 71.1301 51.7524 69.5456 51.7524 67.816H49.7524ZM49.0946 71.8607C48.6763 72.9901 48.037 73.8479 47.1845 74.474L48.3683 76.086C49.5638 75.208 50.4284 74.0179 50.9701 72.5553L49.0946 71.8607ZM47.1784 74.4785C46.3884 75.0679 45.2971 75.408 43.8164 75.408V77.408C45.5996 77.408 47.1484 76.9961 48.3743 76.0815L47.1784 74.4785ZM43.8164 75.776C45.8088 75.776 47.429 75.0552 48.4817 73.5167L46.8311 72.3873C46.2197 73.2808 45.28 73.776 43.8164 73.776V75.776ZM48.4766 73.524C49.5 72.0565 49.9284 69.9108 49.9284 67.264H47.9284C47.9284 69.7692 47.5087 71.4155 46.8361 72.38L48.4766 73.524ZM49.9284 67.264C49.9284 64.5302 49.4952 62.3318 48.4439 60.8717L46.8208 62.0403C47.4976 62.9802 47.9284 64.6538 47.9284 67.264H49.9284ZM48.449 60.8789C47.3827 59.3699 45.7795 58.656 43.8164 58.656V60.656C45.2453 60.656 46.1861 61.1421 46.8157 62.0331L48.449 60.8789ZM43.8164 58.656C41.8409 58.656 40.2243 59.3668 39.1408 60.8717L40.7639 62.0403C41.4084 61.1452 42.3679 60.656 43.8164 60.656V58.656ZM39.1394 60.8737C38.1048 62.3183 37.6804 64.5008 37.6804 67.216H39.6804C39.6804 64.6192 40.104 62.9617 40.7654 62.0383L39.1394 60.8737ZM37.6804 67.216C37.6804 69.8766 38.1002 72.0318 39.0997 73.5117L40.7571 72.3923C40.0925 71.4082 39.6804 69.7394 39.6804 67.216H37.6804ZM39.1081 73.524C40.178 75.0582 41.8116 75.776 43.8164 75.776V73.776C42.3332 73.776 41.3747 73.2778 40.7486 72.38L39.1081 73.524ZM57.4568 75.28L56.8649 76.086L57.4568 75.28ZM55.2008 72.208L54.2593 72.5451L54.2631 72.5553L55.2008 72.208ZM55.2488 62.176L54.3187 61.8085L54.3149 61.8186L55.2488 62.176ZM67.6328 62.176L66.6988 62.5335L66.7028 62.5434L67.6328 62.176ZM67.6808 72.208L68.6186 72.5553V72.5553L67.6808 72.208ZM65.4248 75.28L64.8329 74.474L64.8269 74.4785L65.4248 75.28ZM65.3048 72.952L64.4845 72.38L64.4795 72.3873L65.3048 72.952ZM65.2808 61.456L64.4641 62.0331L64.4693 62.0403L65.2808 61.456ZM57.6008 61.456L56.7893 60.8717L56.7878 60.8737L57.6008 61.456ZM57.5768 72.952L56.7481 73.5117L56.7523 73.5179L56.7566 73.524L57.5768 72.952ZM61.4648 75.408C59.9665 75.408 58.8563 75.0671 58.0487 74.474L56.8649 76.086C58.1053 76.9969 59.6672 77.408 61.4648 77.408V75.408ZM58.0487 74.474C57.1962 73.8479 56.5569 72.9901 56.1386 71.8607L54.2631 72.5553C54.8048 74.0179 55.6694 75.208 56.8649 76.086L58.0487 74.474ZM56.1423 71.8709C55.7235 70.7011 55.5048 69.3539 55.5048 67.816H53.5048C53.5048 69.5421 53.7502 71.1229 54.2593 72.5451L56.1423 71.8709ZM55.5048 67.816V66.688H53.5048V67.816H55.5048ZM55.5048 66.688C55.5048 65.0706 55.7393 63.6921 56.1828 62.5334L54.3149 61.8186C53.7663 63.2519 53.5048 64.8814 53.5048 66.688H55.5048ZM56.1789 62.5434C56.6281 61.4064 57.2843 60.5525 58.1364 59.94L56.9692 58.316C55.7733 59.1755 54.8936 60.3536 54.3188 61.8086L56.1789 62.5434ZM58.1364 59.94C58.9512 59.3544 60.0362 59.024 61.4648 59.024V57.024C59.7255 57.024 58.2024 57.4296 56.9692 58.316L58.1364 59.94ZM61.4648 59.024C62.875 59.024 63.9528 59.3533 64.7692 59.94L65.9365 58.316C64.7048 57.4307 63.1907 57.024 61.4648 57.024V59.024ZM64.7692 59.94C65.6187 60.5506 66.2654 61.4009 66.6989 62.5334L68.5667 61.8186C68.0082 60.3591 67.1349 59.1774 65.9365 58.316L64.7692 59.94ZM66.7028 62.5434C67.1593 63.6991 67.4008 65.0739 67.4008 66.688H69.4008C69.4008 64.8781 69.1303 63.2449 68.5629 61.8086L66.7028 62.5434ZM67.4008 66.688V67.816H69.4008V66.688H67.4008ZM67.4008 67.816C67.4008 69.3504 67.1752 70.6939 66.7431 71.8607L68.6186 72.5553C69.1464 71.1301 69.4008 69.5456 69.4008 67.816H67.4008ZM66.7431 71.8607C66.3248 72.9901 65.6854 73.8479 64.8329 74.474L66.0167 76.086C67.2122 75.208 68.0769 74.0179 68.6186 72.5553L66.7431 71.8607ZM64.8269 74.4785C64.0368 75.0679 62.9456 75.408 61.4648 75.408V77.408C63.248 77.408 64.7968 76.9961 66.0228 76.0815L64.8269 74.4785ZM61.4648 75.776C63.4572 75.776 65.0775 75.0552 66.1301 73.5167L64.4795 72.3873C63.8682 73.2808 62.9284 73.776 61.4648 73.776V75.776ZM66.1251 73.524C67.1485 72.0565 67.5768 69.9108 67.5768 67.264H65.5768C65.5768 69.7692 65.1572 71.4155 64.4846 72.38L66.1251 73.524ZM67.5768 67.264C67.5768 64.5302 67.1436 62.3318 66.0923 60.8717L64.4693 62.0403C65.146 62.9802 65.5768 64.6538 65.5768 67.264H67.5768ZM66.0975 60.8789C65.0311 59.3699 63.4279 58.656 61.4648 58.656V60.656C62.8937 60.656 63.8345 61.1421 64.4641 62.0331L66.0975 60.8789ZM61.4648 58.656C59.4893 58.656 57.8728 59.3668 56.7893 60.8717L58.4123 62.0403C59.0569 61.1452 60.0163 60.656 61.4648 60.656V58.656ZM56.7878 60.8737C55.7532 62.3183 55.3288 64.5008 55.3288 67.216H57.3288C57.3288 64.6192 57.7524 62.9617 58.4138 62.0383L56.7878 60.8737ZM55.3288 67.216C55.3288 69.8766 55.7487 72.0318 56.7481 73.5117L58.4055 72.3923C57.7409 71.4082 57.3288 69.7394 57.3288 67.216H55.3288ZM56.7566 73.524C57.8265 75.0582 59.46 75.776 61.4648 75.776V73.776C59.9816 73.776 59.0232 73.2778 58.3971 72.38L56.7566 73.524ZM72.6092 80.8H71.6092V81.8H72.6092V80.8ZM72.6092 63.304V62.304H71.6092V63.304H72.6092ZM74.0493 63.304H75.0493V62.304H74.0493V63.304ZM74.0493 66.496H73.0493L74.9953 66.82L74.0493 66.496ZM76.0413 63.808L76.5992 64.6378L76.0413 63.808ZM82.4972 63.808L81.9326 64.6333L81.9408 64.639L81.9492 64.6445L82.4972 63.808ZM84.6333 66.232L83.736 66.6735L83.7388 66.6792L84.6333 66.232ZM84.6092 73.048L83.7176 72.5951L83.712 72.6065L84.6092 73.048ZM82.4733 75.496L83.0213 76.3325L83.0312 76.3258L82.4733 75.496ZM76.4253 75.736L75.9452 76.6133L75.9517 76.6168L75.9581 76.6202L76.4253 75.736ZM74.4092 73.72L75.2804 73.229L73.4092 69.9092V73.72H74.4092ZM74.4092 80.8V81.8H75.4092V80.8H74.4092ZM81.4173 74.152L81.9629 74.99L81.9676 74.987L81.4173 74.152ZM83.0252 72.28L83.9305 72.7049L83.0252 72.28ZM83.0013 67L82.096 67.4249L82.0995 67.4324L82.1032 67.4399L83.0013 67ZM81.4173 65.152L80.8581 65.9811L80.8648 65.9856L80.8716 65.99L81.4173 65.152ZM76.5933 65.056L77.0806 65.9292L77.0873 65.9255L76.5933 65.056ZM74.9372 66.688L74.0763 66.1793L74.0727 66.1854L74.9372 66.688ZM74.9372 72.664L74.0727 73.1666L74.0797 73.1786L74.087 73.1904L74.9372 72.664ZM76.5933 74.248L76.1059 75.1212L76.1144 75.1259L76.5933 74.248ZM73.6092 80.8V63.304H71.6092V80.8H73.6092ZM72.6092 64.304H74.0493V62.304H72.6092V64.304ZM73.0493 63.304V66.496H75.0493V63.304H73.0493ZM74.9953 66.82C75.3324 65.8358 75.8713 65.1274 76.5992 64.6378L75.4833 62.9782C74.3552 63.7366 73.5661 64.8202 73.1032 66.172L74.9953 66.82ZM76.5992 64.6378C77.3478 64.1345 78.2219 63.872 79.2573 63.872V61.872C77.8606 61.872 76.5907 62.2335 75.4833 62.9782L76.5992 64.6378ZM79.2573 63.872C80.3307 63.872 81.2079 64.1375 81.9326 64.6333L83.0619 62.9827C81.9626 62.2305 80.6798 61.872 79.2573 61.872V63.872ZM81.9492 64.6445C82.7256 65.1531 83.3179 65.8239 83.736 66.6735L85.5305 65.7905C84.9566 64.6241 84.1249 63.6789 83.0453 62.9715L81.9492 64.6445ZM83.7388 66.6792C84.1617 67.525 84.3773 68.4508 84.3773 69.472H86.3773C86.3773 68.1572 86.0968 66.923 85.5277 65.7848L83.7388 66.6792ZM84.3773 69.472V69.808H86.3773V69.472H84.3773ZM84.3773 69.808C84.3773 70.8057 84.157 71.7302 83.7177 72.5951L85.5008 73.5009C86.0855 72.3498 86.3773 71.1143 86.3773 69.808H84.3773ZM83.712 72.6065C83.2928 73.4584 82.6975 74.1402 81.9153 74.6662L83.0312 76.3258C84.105 75.6038 84.9337 74.6536 85.5065 73.4895L83.712 72.6065ZM81.9252 74.6595C81.1799 75.1479 80.2877 75.408 79.2093 75.408V77.408C80.6268 77.408 81.9106 77.0601 83.0213 76.3325L81.9252 74.6595ZM79.2093 75.408C78.3555 75.408 77.589 75.2198 76.8924 74.8518L75.9581 76.6202C76.9575 77.1482 78.047 77.408 79.2093 77.408V75.408ZM76.9053 74.8587C76.2287 74.4886 75.689 73.9539 75.2804 73.229L73.5381 74.211C74.1215 75.2461 74.9258 76.0554 75.9452 76.6133L76.9053 74.8587ZM73.4092 73.72V80.8H75.4092V73.72H73.4092ZM74.4092 79.8H72.6092V81.8H74.4092V79.8ZM78.9692 75.824C80.0772 75.824 81.0893 75.5589 81.9629 74.99L80.8716 73.314C80.3692 73.6411 79.7493 73.824 78.9692 73.824V75.824ZM81.9676 74.987C82.8297 74.4187 83.4864 73.6509 83.9305 72.7049L82.12 71.8551C81.8281 72.4771 81.4128 72.9573 80.8669 73.317L81.9676 74.987ZM83.9305 72.7049C84.3684 71.772 84.5773 70.7442 84.5773 69.64H82.5773C82.5773 70.4878 82.4181 71.22 82.12 71.8551L83.9305 72.7049ZM84.5773 69.64C84.5773 68.5297 84.3579 67.4965 83.8993 66.5601L82.1032 67.4399C82.4126 68.0715 82.5773 68.7983 82.5773 69.64H84.5773ZM83.9065 66.5751C83.4639 65.6323 82.8156 64.8692 81.9629 64.314L80.8716 65.99C81.3949 66.3308 81.8026 66.7997 82.096 67.4249L83.9065 66.5751ZM81.9764 64.3229C81.1012 63.7327 80.0842 63.456 78.9692 63.456V65.456C79.7423 65.456 80.3573 65.6433 80.8581 65.9811L81.9764 64.3229ZM78.9692 63.456C77.9315 63.456 76.9667 63.6936 76.0992 64.1865L77.0873 65.9255C77.6278 65.6184 78.247 65.456 78.9692 65.456V63.456ZM76.1059 64.1828C75.2573 64.6564 74.5788 65.3289 74.0763 66.1793L75.7982 67.1967C76.1277 66.6391 76.5532 66.2236 77.0806 65.9292L76.1059 64.1828ZM74.0727 66.1854C73.5702 67.0497 73.3372 68.0371 73.3372 69.112H75.3372C75.3372 68.3309 75.5043 67.7023 75.8018 67.1906L74.0727 66.1854ZM73.3372 69.112V70.288H75.3372V69.112H73.3372ZM73.3372 70.288C73.3372 71.3379 73.5732 72.3075 74.0727 73.1666L75.8018 72.1614C75.5013 71.6445 75.3372 71.0301 75.3372 70.288H73.3372ZM74.087 73.1904C74.5922 74.0065 75.2689 74.6541 76.1059 75.1212L77.0806 73.3748C76.5416 73.0739 76.1143 72.6655 75.7875 72.1376L74.087 73.1904ZM76.1144 75.1259C76.9793 75.5976 77.9386 75.824 78.9692 75.824V73.824C78.2399 73.824 77.6152 73.6664 77.0721 73.3701L76.1144 75.1259ZM91.3435 75.76L90.9721 76.6885L90.98 76.6916L91.3435 75.76ZM89.8555 74.464L88.9901 74.965L89.8555 74.464ZM89.3275 64.672H90.3275V63.672H89.3275V64.672ZM87.0475 64.672H86.0475V65.672H87.0475V64.672ZM87.0475 63.304V62.304H86.0475V63.304H87.0475ZM89.3275 63.304V64.304H90.3275V63.304H89.3275ZM89.3275 59.296V58.296H88.3275V59.296H89.3275ZM91.0555 59.296H92.0555V58.296H91.0555V59.296ZM91.0555 63.304H90.0555V64.304H91.0555V63.304ZM95.6395 63.304H96.6395V62.304H95.6395V63.304ZM95.6395 64.672V65.672H96.6395V64.672H95.6395ZM91.0555 64.672V63.672H90.0555V64.672H91.0555ZM91.6555 73.912L92.3626 73.2049L91.6555 73.912ZM95.6395 74.512H96.6395V73.512H95.6395V74.512ZM95.6395 76.144V77.144H96.6395V76.144H95.6395ZM93.6235 75.144C92.8565 75.144 92.2242 75.0302 91.707 74.8284L90.98 76.6916C91.7748 77.0018 92.6625 77.144 93.6235 77.144V75.144ZM91.7149 74.8315C91.2871 74.6604 90.9631 74.3812 90.7209 73.963L88.9901 74.965C89.4519 75.7628 90.1199 76.3476 90.9721 76.6885L91.7149 74.8315ZM90.7209 73.963C90.4906 73.5652 90.3275 72.93 90.3275 71.968H88.3275C88.3275 73.118 88.5164 74.1468 88.9901 74.965L90.7209 73.963ZM90.3275 71.968V64.672H88.3275V71.968H90.3275ZM89.3275 63.672H87.0475V65.672H89.3275V63.672ZM88.0475 64.672V63.304H86.0475V64.672H88.0475ZM87.0475 64.304H89.3275V62.304H87.0475V64.304ZM90.3275 63.304V59.296H88.3275V63.304H90.3275ZM89.3275 60.296H91.0555V58.296H89.3275V60.296ZM90.0555 59.296V63.304H92.0555V59.296H90.0555ZM91.0555 64.304H95.6395V62.304H91.0555V64.304ZM94.6395 63.304V64.672H96.6395V63.304H94.6395ZM95.6395 63.672H91.0555V65.672H95.6395V63.672ZM90.0555 64.672V72.232H92.0555V64.672H90.0555ZM90.0555 72.232C90.0555 73.1413 90.3132 73.9839 90.9484 74.6191L92.3626 73.2049C92.1978 73.0401 92.0555 72.7627 92.0555 72.232H90.0555ZM90.9484 74.6191C91.5875 75.2583 92.4415 75.512 93.3595 75.512V73.512C92.8055 73.512 92.5235 73.3657 92.3626 73.2049L90.9484 74.6191ZM93.3595 75.512H95.6395V73.512H93.3595V75.512ZM94.6395 74.512V76.144H96.6395V74.512H94.6395ZM95.6395 75.144H93.6235V77.144H95.6395V75.144ZM99.2633 75.304L98.63 76.078L98.6386 76.0849L99.2633 75.304ZM97.9193 72.424V71.424H96.9059L96.9194 72.4373L97.9193 72.424ZM99.5993 72.424L100.599 72.3984L100.574 71.424H99.5993V72.424ZM100.391 74.104L99.6955 74.8222L99.7069 74.8333L99.7186 74.8439L100.391 74.104ZM105.575 74.128L106.213 74.898L106.215 74.8962L105.575 74.128ZM103.679 70.288L103.792 69.2942L103.779 69.293L103.679 70.288ZM102.239 70.144L102.13 71.1381L102.14 71.139L102.239 70.144ZM99.4313 69.088L100.065 68.314L99.4313 69.088ZM99.6473 63.952L99.0173 63.1754L99.6473 63.952ZM106.343 63.88L105.741 64.6782L105.748 64.6836L106.343 63.88ZM107.663 66.616V67.616H108.677L108.663 66.6025L107.663 66.616ZM105.983 66.616L104.984 66.6423L105.009 67.616H105.983V66.616ZM105.215 65.08L104.573 65.8462L105.215 65.08ZM100.799 65.128L101.468 65.8713L101.47 65.8701L100.799 65.128ZM100.631 68.008L99.9401 68.7306L99.9485 68.7387L99.957 68.7465L100.631 68.008ZM102.359 68.632L102.258 69.6268L102.26 69.627L102.359 68.632ZM103.799 68.776L103.911 67.7822L103.899 67.781L103.799 68.776ZM106.919 69.88L106.324 70.6839L106.332 70.6894L106.919 69.88ZM107.495 74.464L106.68 73.8848L106.677 73.8891L107.495 74.464ZM103.031 75.36C101.528 75.36 100.526 75.0339 99.888 74.5231L98.6386 76.0849C99.7602 76.9821 101.271 77.36 103.031 77.36V75.36ZM99.8966 74.53C99.2592 74.0086 98.9315 73.3342 98.9192 72.4107L96.9194 72.4373C96.9391 73.9138 97.5074 75.1594 98.6301 76.078L99.8966 74.53ZM97.9193 73.424H99.5993V71.424H97.9193V73.424ZM98.5996 72.4496C98.6233 73.3731 99.0244 74.1721 99.6955 74.8222L101.087 73.3858C100.734 73.0439 100.607 72.7229 100.599 72.3984L98.5996 72.4496ZM99.7186 74.8439C100.525 75.5767 101.716 75.824 103.031 75.824V73.824C101.882 73.824 101.314 73.5913 101.064 73.3641L99.7186 74.8439ZM103.031 75.824C104.276 75.824 105.397 75.5741 106.213 74.898L104.937 73.358C104.633 73.6099 104.058 73.824 103.031 73.824V75.824ZM106.215 74.8962C106.99 74.251 107.439 73.4055 107.439 72.4H105.439C105.439 72.7385 105.313 73.045 104.935 73.3598L106.215 74.8962ZM107.439 72.4C107.439 71.5017 107.074 70.7268 106.357 70.1778C105.691 69.6683 104.794 69.4077 103.792 69.2943L103.567 71.2817C104.404 71.3763 104.888 71.5717 105.142 71.7662C105.344 71.9212 105.439 72.0983 105.439 72.4H107.439ZM103.779 69.293L102.339 69.149L102.14 71.139L103.58 71.283L103.779 69.293ZM102.348 69.15C101.317 69.037 100.581 68.7364 100.065 68.314L98.7981 69.862C99.6899 70.5916 100.825 70.995 102.13 71.138L102.348 69.15ZM100.065 68.314C99.6276 67.9566 99.3753 67.4524 99.3753 66.664H97.3753C97.3753 67.9556 97.827 69.0674 98.7981 69.862L100.065 68.314ZM99.3753 66.664C99.3753 65.8364 99.6703 65.2211 100.277 64.7286L99.0173 63.1754C97.9284 64.0589 97.3753 65.2516 97.3753 66.664H99.3753ZM100.277 64.7286C100.901 64.2225 101.785 63.92 103.031 63.92V61.92C101.461 61.92 100.09 62.3055 99.0173 63.1754L100.277 64.7286ZM103.031 63.92C104.235 63.92 105.11 64.2018 105.741 64.6782L106.946 63.0818C105.881 62.2782 104.547 61.92 103.031 61.92V63.92ZM105.748 64.6836C106.333 65.1172 106.651 65.7212 106.663 66.6295L108.663 66.6025C108.643 65.1428 108.081 63.9228 106.939 63.0764L105.748 64.6836ZM107.663 65.616H105.983V67.616H107.663V65.616ZM106.983 66.5897C106.959 65.6751 106.557 64.9005 105.858 64.3138L104.573 65.8462C104.865 66.0915 104.976 66.3409 104.984 66.6423L106.983 66.5897ZM105.858 64.3138C105.113 63.6887 104.116 63.456 103.031 63.456V65.456C103.866 65.456 104.326 65.6393 104.573 65.8462L105.858 64.3138ZM103.031 63.456C101.909 63.456 100.88 63.7073 100.129 64.3859L101.47 65.8701C101.71 65.6527 102.17 65.456 103.031 65.456V63.456ZM100.13 64.3847C99.4544 64.993 99.0793 65.7772 99.0793 66.688H101.079C101.079 66.3828 101.184 66.1269 101.468 65.8713L100.13 64.3847ZM99.0793 66.688C99.0793 67.4776 99.3668 68.1823 99.9401 68.7306L101.323 67.2854C101.16 67.1297 101.079 66.9544 101.079 66.688H99.0793ZM99.957 68.7465C100.552 69.2895 101.376 69.5368 102.258 69.6268L102.461 67.6372C101.775 67.5672 101.447 67.3985 101.306 67.2695L99.957 68.7465ZM102.26 69.627L103.7 69.771L103.899 67.781L102.459 67.637L102.26 69.627ZM103.688 69.7697C104.843 69.8997 105.702 70.223 106.324 70.6838L107.514 69.0762C106.537 68.353 105.316 67.9403 103.911 67.7823L103.688 69.7697ZM106.332 70.6894C106.861 71.0734 107.143 71.6049 107.143 72.424H109.143C109.143 71.0351 108.609 69.8706 107.507 69.0706L106.332 70.6894ZM107.143 72.424C107.143 72.9703 106.991 73.4475 106.68 73.8848L108.31 75.0432C108.864 74.2645 109.143 73.3817 109.143 72.424H107.143ZM106.677 73.8891C106.382 74.3088 105.946 74.6654 105.318 74.9398L106.12 76.7722C107.029 76.3746 107.776 75.8032 108.314 75.0389L106.677 73.8891ZM105.318 74.9398C104.702 75.2097 103.947 75.36 103.031 75.36V77.36C104.163 77.36 105.201 77.1743 106.12 76.7722L105.318 74.9398Z" fill="#974063"/>
</svg>
