<svg width="24" height="25" viewBox="0 0 24 25" fill="none" xmlns="http://www.w3.org/2000/svg">
<path d="M14.9993 22.9992V16.9991C14.9993 16.7339 14.8939 16.4795 14.7064 16.292C14.5188 16.1044 14.2645 15.9991 13.9993 15.9991H9.99927C9.73405 15.9991 9.4797 16.1044 9.29216 16.292C9.10462 16.4795 8.99927 16.7339 8.99927 16.9991V22.9992C8.99927 23.2644 8.89393 23.5187 8.70642 23.7063C8.51891 23.8938 8.26459 23.9992 7.99939 23.9992L2.00012 24C1.86879 24 1.73874 23.9741 1.6174 23.9239C1.49606 23.8737 1.38581 23.8 1.29294 23.7071C1.20007 23.6143 1.12639 23.504 1.07613 23.3827C1.02587 23.2614 1 23.1313 1 23V11.4424C1 11.3031 1.02911 11.1653 1.08547 11.0379C1.14183 10.9105 1.22418 10.7963 1.32726 10.7026L11.3266 1.6107C11.5106 1.44334 11.7505 1.35059 11.9993 1.35059C12.2481 1.35058 12.4879 1.44331 12.672 1.61066L22.6727 10.7025C22.7758 10.7963 22.8582 10.9105 22.9145 11.0379C22.9709 11.1653 23 11.3031 23 11.4425V23C23 23.1313 22.9741 23.2614 22.9239 23.3827C22.8736 23.504 22.7999 23.6143 22.7071 23.7071C22.6142 23.8 22.5039 23.8737 22.3826 23.9239C22.2613 23.9742 22.1312 24 21.9999 24L15.9991 23.9992C15.7339 23.9992 15.4796 23.8938 15.2921 23.7063C15.1046 23.5187 14.9993 23.2644 14.9993 22.9992V22.9992Z" stroke="#2A3950" stroke-width="2" stroke-linecap="round" stroke-linejoin="round"/>
</svg>
