<svg width="29" height="29" viewBox="0 0 29 29" fill="none" xmlns="http://www.w3.org/2000/svg">
<path d="M25.6611 17.8191C25.131 17.9185 24.7817 18.4288 24.8811 18.9588C24.9548 19.3521 24.7819 19.6324 24.6723 19.7645C24.563 19.8962 24.32 20.1172 23.9213 20.1172H9.09751C8.69883 20.1172 8.45586 19.8962 8.34653 19.7645C8.23696 19.6324 8.06406 19.3521 8.13779 18.9588C8.41479 17.4807 8.97061 16.5085 9.50811 15.5683C10.1609 14.4265 10.8359 13.2458 10.8359 11.4258V9.96094C10.8359 6.88149 13.339 4.34219 16.4171 4.29751H16.6017C19.6693 4.34204 22.1641 6.88135 22.1641 9.96094V11.4258C22.1641 12.9748 22.6708 14.0406 23.1457 14.9181C23.3225 15.2447 23.6584 15.43 24.0054 15.43C24.1624 15.43 24.3216 15.3921 24.4693 15.3121C24.9437 15.0554 25.1201 14.4627 24.8633 13.9885C24.3908 13.1153 24.1172 12.4161 24.1172 11.4258V9.96094C24.1172 7.95112 23.3387 6.05288 21.9251 4.61592C20.7137 3.38437 19.1582 2.61592 17.4766 2.40381V0.976562C17.4766 0.437207 17.0394 0 16.5 0C15.9606 0 15.5234 0.437207 15.5234 0.976562V2.40669C11.7901 2.89106 8.88281 6.11235 8.88281 9.96094V11.4258C8.88281 12.7269 8.4105 13.553 7.81255 14.5989C7.22349 15.6294 6.55576 16.7973 6.21807 18.5991C6.05688 19.4593 6.28491 20.3387 6.8437 21.0119C7.402 21.6846 8.22349 22.0703 9.09751 22.0703H13.5892C13.5892 23.6857 14.9034 25 16.5188 25C18.1343 25 19.4485 23.6857 19.4485 22.0703H23.9213C24.7954 22.0703 25.6169 21.6846 26.1751 21.0119C26.7339 20.3387 26.962 19.4593 26.8008 18.5991C26.7015 18.069 26.1913 17.7198 25.6611 17.8191ZM16.5189 23.0469C15.9804 23.0469 15.5423 22.6088 15.5423 22.0703H17.4955C17.4955 22.6088 17.0574 23.0469 16.5189 23.0469ZM5.95312 10.9378C5.41377 10.9378 4.97656 10.5006 4.97656 9.96123C4.97656 7.12158 6.01914 4.39307 7.91221 2.27832C8.27192 1.87651 8.88931 1.84233 9.29116 2.20205C9.69297 2.56177 9.72715 3.17915 9.36743 3.58101C7.79541 5.33711 6.92969 7.60293 6.92969 9.96123C6.92969 10.5006 6.49248 10.9378 5.95312 10.9378ZM28.0234 9.96123C28.0234 10.5006 27.5862 10.9378 27.0469 10.9378C26.5075 10.9378 26.0703 10.5006 26.0703 9.96123C26.0703 7.60293 25.2046 5.33706 23.6326 3.58101C23.2729 3.17915 23.307 2.56177 23.7088 2.20205C24.1107 1.84233 24.7281 1.87646 25.0878 2.27832C26.9809 4.39307 28.0234 7.12158 28.0234 9.96123Z" fill="#FFF7F5"/>
<circle cx="8" cy="21" r="8" fill="#974063"/>
<path d="M5.90386 23.3568C6.32626 22.9472 6.70706 22.5696 7.04626 22.224C7.39186 21.8784 7.68306 21.5584 7.91986 21.264C8.16306 20.9696 8.34866 20.6944 8.47666 20.4384C8.60466 20.1824 8.66866 19.9392 8.66866 19.7088C8.66866 19.3824 8.58226 19.1264 8.40946 18.9408C8.23666 18.7488 7.98706 18.6528 7.66066 18.6528C7.42386 18.6528 7.20626 18.72 7.00786 18.8544C6.81586 18.9888 6.63666 19.1488 6.47026 19.3344L5.85586 18.72C6.13746 18.4192 6.42546 18.1888 6.71986 18.0288C7.02066 17.8624 7.38226 17.7792 7.80466 17.7792C8.09906 17.7792 8.36466 17.824 8.60146 17.9136C8.83826 18.0032 9.03986 18.1312 9.20626 18.2976C9.37266 18.4576 9.50066 18.6528 9.59026 18.8832C9.68626 19.1136 9.73426 19.3696 9.73426 19.6512C9.73426 19.92 9.67346 20.1952 9.55186 20.4768C9.43666 20.752 9.27666 21.0336 9.07186 21.3216C8.87346 21.6032 8.63986 21.8944 8.37106 22.1952C8.10226 22.496 7.81746 22.8064 7.51666 23.1264C7.67666 23.1136 7.84946 23.1008 8.03506 23.088C8.22066 23.0688 8.38706 23.0592 8.53426 23.0592H10.0319V24H5.90386V23.3568Z" fill="#FFF7F5"/>
</svg>
